<svg aria-hidden="true" style="position:absolute;width:0;height:0;overflow:hidden" xmlns="http://www.w3.org/2000/svg">
  <defs>
    <symbol id="moon" viewBox="0 0 23 28">
      <path d="M19.719 20.359c-.562.094-1.141.141-1.719.141-5.797 0-10.5-4.703-10.5-10.5 0-1.984.578-3.922 1.625-5.578A9.952 9.952 0 0 0 2 14c0 5.516 4.484 10 10 10 3.016 0 5.844-1.375 7.719-3.641zm3.172-1.328A12.035 12.035 0 0 1 12 26C5.391 26 0 20.609 0 14A11.95 11.95 0 0 1 11.547 2.016a.976.976 0 0 1 .953.609c.172.391.063.844-.234 1.125A8.372 8.372 0 0 0 9.5 10c0 4.688 3.813 8.5 8.5 8.5a8.352 8.352 0 0 0 3.563-.797 1 1 0 0 1 1.328 1.328z"/>
    </symbol>
    <symbol id="sun" viewBox="0 0 32 32">
      <path d="M16 26a2 2 0 0 1 2 2v2a2 2 0 1 1-4 0v-2a2 2 0 0 1 2-2zm0-20a2 2 0 0 1-2-2V2a2 2 0 1 1 4 0v2a2 2 0 0 1-2 2zm14 8a2 2 0 1 1 0 4h-2a2 2 0 1 1 0-4h2zM6 16a2 2 0 0 1-2 2H2a2 2 0 1 1 0-4h2a2 2 0 0 1 2 2zm19.899 7.071 1.414 1.414a2 2 0 1 1-2.828 2.828l-1.414-1.414a2 2 0 1 1 2.828-2.828zM6.101 8.929 4.687 7.515a2 2 0 1 1 2.828-2.828l1.414 1.414a2 2 0 1 1-2.828 2.828zm19.798 0a2 2 0 1 1-2.828-2.828l1.414-1.414a2 2 0 1 1 2.828 2.828l-1.414 1.414zM6.101 23.071a2 2 0 1 1 2.828 2.828l-1.414 1.414a2 2 0 1 1-2.828-2.828l1.414-1.414zM16 8a8 8 0 1 0 0 16 8 8 0 0 0 0-16zm0 13a5 5 0 1 1 .001-10.001A5 5 0 0 1 16 21z"/>
    </symbol>
  </defs>
</svg>
